<svg width="24" height="24" viewBox="0 0 24 24" fill="none" xmlns="http://www.w3.org/2000/svg">
<g id="Abodoo / Icon / icon_learning">
<path id="Vector" d="M14.0455 9.82956V8.09093C14.608 7.85229 15.1834 7.67331 15.7718 7.55399C16.3595 7.43468 16.9773 7.37502 17.625 7.37502C18.0682 7.37502 18.5028 7.40911 18.929 7.47729C19.3551 7.54547 19.7727 7.6307 20.1818 7.73297V9.36934C19.7727 9.21593 19.3595 9.10104 18.9423 9.02468C18.5243 8.94763 18.0852 8.90911 17.625 8.90911C16.9773 8.90911 16.3551 8.99024 15.7585 9.15252C15.1619 9.31411 14.5909 9.53979 14.0455 9.82956ZM14.0455 15.4546V13.7159C14.608 13.4773 15.1834 13.2983 15.7718 13.179C16.3595 13.0597 16.9773 13 17.625 13C18.0682 13 18.5028 13.0341 18.929 13.1023C19.3551 13.1705 19.7727 13.2557 20.1818 13.358V14.9943C19.7727 14.8409 19.3595 14.726 18.9423 14.6497C18.5243 14.5726 18.0852 14.5341 17.625 14.5341C16.9773 14.5341 16.3551 14.6108 15.7585 14.7642C15.1619 14.9176 14.5909 15.1477 14.0455 15.4546ZM14.0455 12.6421V10.9034C14.608 10.6648 15.1834 10.4858 15.7718 10.3665C16.3595 10.2472 16.9773 10.1875 17.625 10.1875C18.0682 10.1875 18.5028 10.2216 18.929 10.2898C19.3551 10.358 19.7727 10.4432 20.1818 10.5455V12.1818C19.7727 12.0284 19.3595 11.9135 18.9423 11.8372C18.5243 11.7601 18.0852 11.7216 17.625 11.7216C16.9773 11.7216 16.3551 11.8027 15.7585 11.965C15.1619 12.1266 14.5909 12.3523 14.0455 12.6421ZM6.375 16.0682C7.17614 16.0682 7.95614 16.1575 8.715 16.3362C9.47318 16.5155 10.2273 16.7841 10.9773 17.1421V7.0682C10.2784 6.65911 9.53693 6.35229 8.75284 6.14774C7.96875 5.9432 7.17614 5.84093 6.375 5.84093C5.76136 5.84093 5.15216 5.90059 4.54739 6.0199C3.94193 6.13922 3.35795 6.3182 2.79545 6.55683V16.6818C3.39205 16.4773 3.98455 16.3239 4.57295 16.2216C5.16068 16.1193 5.76136 16.0682 6.375 16.0682ZM13.0227 17.1421C13.7727 16.7841 14.5272 16.5155 15.286 16.3362C16.0442 16.1575 16.8239 16.0682 17.625 16.0682C18.2386 16.0682 18.8397 16.1193 19.4281 16.2216C20.0158 16.3239 20.608 16.4773 21.2045 16.6818V6.55683C20.642 6.3182 20.0584 6.13922 19.4536 6.0199C18.8482 5.90059 18.2386 5.84093 17.625 5.84093C16.8239 5.84093 16.0312 5.9432 15.2472 6.14774C14.4631 6.35229 13.7216 6.65911 13.0227 7.0682V17.1421ZM12 20.1591C11.1818 19.5114 10.2955 19.0085 9.34091 18.6506C8.38636 18.2926 7.39773 18.1137 6.375 18.1137C5.65909 18.1137 4.95614 18.2074 4.26614 18.3949C3.57545 18.5824 2.91477 18.8466 2.28409 19.1875C1.92614 19.375 1.58114 19.3665 1.24909 19.1619C0.916364 18.9574 0.75 18.6591 0.75 18.2671V5.9432C0.75 5.7557 0.797045 5.57672 0.891136 5.40627C0.984545 5.23581 1.125 5.10797 1.3125 5.02274C2.09659 4.61365 2.91477 4.30684 3.76705 4.10229C4.61932 3.89774 5.48864 3.79547 6.375 3.79547C7.36364 3.79547 8.33114 3.92331 9.2775 4.17899C10.2232 4.43468 11.1307 4.8182 12 5.32956C12.8693 4.8182 13.7772 4.43468 14.7235 4.17899C15.6692 3.92331 16.6364 3.79547 17.625 3.79547C18.5114 3.79547 19.3807 3.89774 20.233 4.10229C21.0852 4.30684 21.9034 4.61365 22.6875 5.02274C22.875 5.10797 23.0158 5.23581 23.1099 5.40627C23.2033 5.57672 23.25 5.7557 23.25 5.9432V18.2671C23.25 18.6591 23.084 18.9574 22.7519 19.1619C22.4192 19.3665 22.0739 19.375 21.7159 19.1875C21.0852 18.8466 20.4245 18.5824 19.7339 18.3949C19.0439 18.2074 18.3409 18.1137 17.625 18.1137C16.6023 18.1137 15.6136 18.2926 14.6591 18.6506C13.7045 19.0085 12.8182 19.5114 12 20.1591Z" fill="#6C757D"/>
</g>
</svg>
