<svg width="74" height="74" viewBox="0 0 74 74" fill="none" xmlns="http://www.w3.org/2000/svg">
<circle cx="37" cy="37" r="36" fill="white" stroke="#45C6C8" stroke-width="2"/>
<circle cx="37" cy="37" r="33" fill="#F1F4FE"/>
<path d="M37 24.25C39.3375 24.25 41.25 26.1625 41.25 28.5C41.25 30.8375 39.3375 32.75 37 32.75C34.6625 32.75 32.75 30.8375 32.75 28.5C32.75 26.1625 34.6625 24.25 37 24.25ZM37 45.5C42.7375 45.5 49.325 48.2413 49.75 49.75H24.25C24.7388 48.22 31.2837 45.5 37 45.5ZM37 20C32.3037 20 28.5 23.8037 28.5 28.5C28.5 33.1963 32.3037 37 37 37C41.6963 37 45.5 33.1963 45.5 28.5C45.5 23.8037 41.6963 20 37 20ZM37 41.25C31.3262 41.25 20 44.0975 20 49.75V54H54V49.75C54 44.0975 42.6738 41.25 37 41.25Z" fill="#3A4A81"/>
</svg>
